 <svg viewBox="0 0 1200 700" xmlns="http://www.w3.org/2000/svg"
  version="1.1">
  <!-- courbe 1 -->
 <path d = "M 100 150 c 50 50 50 50 100 0" stroke =
  "#000080" stroke-width = "8" fill = "none"/>
 <path d = "M 200 150 c 50 -50 50 -50 100 0" stroke =
  "#000080" stroke-width = "8" fill = "none"/>      
 <path d = "M 300 150 c 50 50 50 50 100 0" stroke =
  "#000080" stroke-width = "8" fill = "none"/>
 <path d = "M 400 150 c 50 -50 50 -50 100 0" stroke =
  "#000080" stroke-width = "8" fill = "none"/> 
 <path d = "M 500 150 c 50 50 50 50 100 0" stroke =
  "#000080" stroke-width = "8" fill = "none"/>
 <path d = "M 600 150 c 50 -50 50 -50 100 0" stroke =
  "#000080" stroke-width = "8" fill = "none"/>      
 <path d = "M 700 150 c 50 50 50 50 100 0" stroke =
  "#000080" stroke-width = "8" fill = "none"/>
 <path d = "M 800 150 c 50 -50 50 -50 100 0" stroke =
  "#000080" stroke-width = "8" fill = "none"/> 
 <path d = "M 900 150 c 50 50 50 50 100 0" stroke =
  "#000080" stroke-width = "8" fill = "none"/>
 <path d = "M 1000 150 c 50 -50 50 -50 100 0" stroke =
  "#000080" stroke-width = "8" fill = "none"/> 
  <!-- courbe 2 -->
<path d = "M 100 250 c 50 50 50 50 100 0" stroke =
  "#000080" stroke-width = "8" fill = "none"/>
 <path d = "M 200 250 c 50 -50 50 -50 100 0" stroke =
  "#000080" stroke-width = "8" fill = "none"/>      
 <path d = "M 300 250 c 50 50 50 50 100 0" stroke =
  "#000080" stroke-width = "8" fill = "none"/>
 <path d = "M 400 250 c 50 -50 50 -50 100 0" stroke =
  "#000080" stroke-width = "8" fill = "none"/> 
 <path d = "M 500 250 c 50 50 50 50 100 0" stroke =
  "#000080" stroke-width = "8" fill = "none"/>
 <path d = "M 600 250 c 50 -50 50 -50 100 0" stroke =
  "#000080" stroke-width = "8" fill = "none"/>      
 <path d = "M 700 250 c 50 50 50 50 100 0" stroke =
  "#000080" stroke-width = "8" fill = "none"/>
 <path d = "M 800 250 c 50 -50 50 -50 100 0" stroke =
  "#000080" stroke-width = "8" fill = "none"/> 
 <path d = "M 900 250 c 50 50 50 50 100 0" stroke =
  "#000080" stroke-width = "8" fill = "none"/>
 <path d = "M 1000 250 c 50 -50 50 -50 100 0" stroke =
  "#000080" stroke-width = "8" fill = "none"/> 
  <!-- courbe 3 -->
<path d = "M 100 350 c 50 50 50 50 100 0" stroke =
  "#000080" stroke-width = "8" fill = "none"/>
 <path d = "M 200 350 c 50 -50 50 -50 100 0" stroke =
  "#000080" stroke-width = "8" fill = "none"/>      
 <path d = "M 300 350 c 50 50 50 50 100 0" stroke =
  "#000080" stroke-width = "8" fill = "none"/>
 <path d = "M 400 350 c 50 -50 50 -50 100 0" stroke =
  "#000080" stroke-width = "8" fill = "none"/> 
 <path d = "M 500 350 c 50 50 50 50 100 0" stroke =
  "#000080" stroke-width = "8" fill = "none"/>
 <path d = "M 600 350 c 50 -50 50 -50 100 0" stroke =
  "#000080" stroke-width = "8" fill = "none"/>      
 <path d = "M 700 350 c 50 50 50 50 100 0" stroke =
  "#000080" stroke-width = "8" fill = "none"/>
 <path d = "M 800 350 c 50 -50 50 -50 100 0" stroke =
  "#000080" stroke-width = "8" fill = "none"/> 
 <path d = "M 900 350 c 50 50 50 50 100 0" stroke =
  "#000080" stroke-width = "8" fill = "none"/>
 <path d = "M 1000 350 c 50 -50 50 -50 100 0" stroke =
  "#000080" stroke-width = "8" fill = "none"/> 
  <!-- courbe 4 -->
<path d = "M 100 450 c 50 50 50 50 100 0" stroke =
  "#000080" stroke-width = "8" fill = "none"/>
 <path d = "M 200 450 c 50 -50 50 -50 100 0" stroke =
  "#000080" stroke-width = "8" fill = "none"/>      
 <path d = "M 300 450 c 50 50 50 50 100 0" stroke =
  "#000080" stroke-width = "8" fill = "none"/>
 <path d = "M 400 450 c 50 -50 50 -50 100 0" stroke =
  "#000080" stroke-width = "8" fill = "none"/> 
 <path d = "M 500 450 c 50 50 50 50 100 0" stroke =
  "#000080" stroke-width = "8" fill = "none"/>
 <path d = "M 600 450 c 50 -50 50 -50 100 0" stroke =
  "#000080" stroke-width = "8" fill = "none"/>      
 <path d = "M 700 450 c 50 50 50 50 100 0" stroke =
  "#000080" stroke-width = "8" fill = "none"/>
 <path d = "M 800 450 c 50 -50 50 -50 100 0" stroke =
  "#000080" stroke-width = "8" fill = "none"/> 
 <path d = "M 900 450 c 50 50 50 50 100 0" stroke =
  "#000080" stroke-width = "8" fill = "none"/>
 <path d = "M 1000 450 c 50 -50 50 -50 100 0" stroke =
  "#000080" stroke-width = "8" fill = "none"/> 
  <!-- courbe 5 -->
 <path d = "M 100 550 c 50 50 50 50 100 0" stroke =
  "#000080" stroke-width = "8" fill = "none"/>
 <path d = "M 200 550 c 50 -50 50 -50 100 0" stroke =
  "#000080" stroke-width = "8" fill = "none"/>      
 <path d = "M 300 550 c 50 50 50 50 100 0" stroke =
  "#000080" stroke-width = "8" fill = "none"/>
 <path d = "M 400 550 c 50 -50 50 -50 100 0" stroke =
  "#000080" stroke-width = "8" fill = "none"/> 
 <path d = "M 500 550 c 50 50 50 50 100 0" stroke =
  "#000080" stroke-width = "8" fill = "none"/>
 <path d = "M 600 550 c 50 -50 50 -50 100 0" stroke =
  "#000080" stroke-width = "8" fill = "none"/>      
 <path d = "M 700 550 c 50 50 50 50 100 0" stroke =
  "#000080" stroke-width = "8" fill = "none"/>
 <path d = "M 800 550 c 50 -50 50 -50 100 0" stroke =
  "#000080" stroke-width = "8" fill = "none"/> 
 <path d = "M 900 550 c 50 50 50 50 100 0" stroke =
  "#000080" stroke-width = "8" fill = "none"/>
 <path d = "M 1000 550 c 50 -50 50 -50 100 0" stroke =
  "#000080" stroke-width = "8" fill = "none"/> 
  <!-- courbe 6 -->
<path d = "M 100 650 c 50 50 50 50 100 0" stroke =
  "#000080" stroke-width = "8" fill = "none"/>
 <path d = "M 200 650 c 50 -50 50 -50 100 0" stroke =
  "#000080" stroke-width = "8" fill = "none"/>      
 <path d = "M 300 650 c 50 50 50 50 100 0" stroke =
  "#000080" stroke-width = "8" fill = "none"/>
 <path d = "M 400 650 c 50 -50 50 -50 100 0" stroke =
  "#000080" stroke-width = "8" fill = "none"/> 
 <path d = "M 500 650 c 50 50 50 50 100 0" stroke =
  "#000080" stroke-width = "8" fill = "none"/>
 <path d = "M 600 650 c 50 -50 50 -50 100 0" stroke =
  "#000080" stroke-width = "8" fill = "none"/>      
 <path d = "M 700 650 c 50 50 50 50 100 0" stroke =
  "#000080" stroke-width = "8" fill = "none"/>
 <path d = "M 800 650 c 50 -50 50 -50 100 0" stroke =
  "#000080" stroke-width = "8" fill = "none"/> 
 <path d = "M 900 650 c 50 50 50 50 100 0" stroke =
  "#000080" stroke-width = "8" fill = "none"/>
 <path d = "M 1000 650 c 50 -50 50 -50 100 0" stroke =
  "#000080" stroke-width = "8" fill = "none"/> 
 </svg>